<svg xmlns="http://www.w3.org/2000/svg" width="100" height="50" viewBox="0 0 143.423 53.584">
  <g id="golang" transform="translate(0 0.034)">
    <g id="Group_3" data-name="Group 3" transform="translate(10.544 13.607)">
      <g id="Group_2" data-name="Group 2">
        <g id="Group_1" data-name="Group 1">
          <path id="Path_2" data-name="Path 2" d="M15.379,22.084c-.279,0-.349-.14-.209-.349l1.466-1.885A1,1,0,0,1,17.4,19.5H42.334c.279,0,.349.209.209.419l-1.187,1.816a1.064,1.064,0,0,1-.7.419Z" transform="translate(-15.1 -19.5)" fill="#00acd7"/>
        </g>
      </g>
    </g>
    <g id="Group_6" data-name="Group 6" transform="translate(0 20.031)">
      <g id="Group_5" data-name="Group 5">
        <g id="Group_4" data-name="Group 4">
          <path id="Path_3" data-name="Path 3" d="M.279,31.284c-.279,0-.349-.14-.209-.349l1.466-1.885A1,1,0,0,1,2.3,28.7H34.147a.321.321,0,0,1,.349.419l-.559,1.676a.611.611,0,0,1-.628.419Z" transform="translate(0 -28.7)" fill="#00acd7"/>
        </g>
      </g>
    </g>
    <g id="Group_9" data-name="Group 9" transform="translate(16.899 26.455)">
      <g id="Group_8" data-name="Group 8">
        <g id="Group_7" data-name="Group 7">
          <path id="Path_4" data-name="Path 4" d="M24.479,40.484c-.279,0-.349-.209-.209-.419l.978-1.746a.926.926,0,0,1,.7-.419H39.912c.279,0,.419.209.419.489l-.14,1.676a.525.525,0,0,1-.489.489Z" transform="translate(-24.2 -37.9)" fill="#00acd7"/>
        </g>
      </g>
    </g>
    <g id="Group_13" data-name="Group 13" transform="translate(38.068 -0.034)">
      <g id="CXHf1q_3_">
        <g id="Group_12" data-name="Group 12">
          <g id="Group_10" data-name="Group 10">
            <path id="Path_5" data-name="Path 5" d="M106.109,14.933c-4.4,1.117-7.4,1.955-11.731,3.073-1.047.279-1.117.349-2.025-.7a9.347,9.347,0,0,0-3.282-2.654c-4.4-2.165-8.659-1.536-12.639,1.047a14.851,14.851,0,0,0-7.123,13.268,10.947,10.947,0,0,0,9.427,10.963,12.888,12.888,0,0,0,11.871-4.609c.628-.768,1.187-1.606,1.885-2.584H79.015c-1.466,0-1.816-.908-1.327-2.095.908-2.165,2.584-5.8,3.561-7.611A1.886,1.886,0,0,1,83,21.916h25.418c-.14,1.885-.14,3.771-.419,5.656a29.781,29.781,0,0,1-5.726,13.687,29.089,29.089,0,0,1-19.9,11.871,24.735,24.735,0,0,1-18.784-4.609,21.934,21.934,0,0,1-8.868-15.5,27.408,27.408,0,0,1,5.936-20.46A30.988,30.988,0,0,1,80.2.478C86.766-.709,93.051.059,98.707,3.9a21.889,21.889,0,0,1,8.1,9.846C107.226,14.375,106.947,14.724,106.109,14.933Z" transform="translate(-54.515 0.034)" fill="#00acd7"/>
          </g>
          <g id="Group_11" data-name="Group 11" transform="translate(49.776 0.647)">
            <path id="Path_6" data-name="Path 6" d="M150.728,53.829a26.2,26.2,0,0,1-17.039-6.145,21.9,21.9,0,0,1-7.542-13.477c-1.257-7.891.908-14.874,5.656-21.089,5.1-6.7,11.243-10.2,19.552-11.662C158.479.2,165.183.9,171.258,5.017A21.736,21.736,0,0,1,181.1,20.59a26.955,26.955,0,0,1-8.03,23.672A32,32,0,0,1,156.315,53.2C154.429,53.549,152.544,53.619,150.728,53.829Zm16.62-28.211a20.1,20.1,0,0,0-.21-2.3,11.5,11.5,0,0,0-14.245-9.287,15.255,15.255,0,0,0-12.22,12.15,11.5,11.5,0,0,0,6.424,13.2,12.8,12.8,0,0,0,11.382-.419C164,36.092,167,31.623,167.348,25.617Z" transform="translate(-125.796 -0.892)" fill="#00acd7"/>
          </g>
        </g>
      </g>
    </g>
  </g>
</svg>
