<svg xmlns="http://www.w3.org/2000/svg" width="240.882" height="75.188" viewBox="0 0 240.882 75.188">
  <g id="MollieLogo23-SquareCrop" transform="translate(0 -304.026)">
    <g id="Square" transform="translate(0 304.026)">
      <rect id="Rectangle_1" data-name="Rectangle 1" width="240.882" height="75.188"/>
    </g>
    <g id="Logo_-_2022" transform="translate(33.301 314.026)">
      <path id="Path_1" data-name="Path 1" d="M286.9,367.107a8.9,8.9,0,0,1,8.364,6.019H278.554a8.849,8.849,0,0,1,8.343-6.019Zm16.743,9.064a16.589,16.589,0,0,0-4.811-11.695,16.216,16.216,0,0,0-11.607-4.9h-.216a17.345,17.345,0,0,0,.234,34.688h.018a17.445,17.445,0,0,0,14.923-8.505l.4-.667-6.848-3.37-.342.559a9.323,9.323,0,0,1-16.959-2.307h25.215v-3.8Zm-42.9-22.489a5.406,5.406,0,1,1,5.406-5.406,5.405,5.405,0,0,1-5.406,5.406m-4.145,39.9h8.292v-33.3H256.6Zm-15.86-50.008h8.289v50.008h-8.289Zm-15.86,50.008h8.292V343.57h-8.292Zm-21.807-7.519a9.123,9.123,0,1,1,9.123-9.123,9.134,9.134,0,0,1-9.123,9.123Zm0-26.484A17.345,17.345,0,1,0,220.42,376.92a17.365,17.365,0,0,0-17.345-17.345Zm-35.4.054c-.451-.036-.883-.054-1.333-.054a15.069,15.069,0,0,0-10.995,4.739A15.034,15.034,0,0,0,129.36,374.6v18.975h8.112V374.837a7.179,7.179,0,0,1,6.163-6.956c.234-.018.469-.036.685-.036a6.856,6.856,0,0,1,6.83,6.811v18.921h8.289V374.8a7.159,7.159,0,0,1,6.163-6.938c.234-.018.469-.036.685-.036a6.853,6.853,0,0,1,6.848,6.775v18.975h8.292V374.837a15.389,15.389,0,0,0-3.946-10.289,14.773,14.773,0,0,0-9.8-4.919" transform="translate(-129.36 -342.87)" fill="#fff" fill-rule="evenodd"/>
    </g>
  </g>
</svg>
