<svg xmlns="http://www.w3.org/2000/svg" width="243.704" height="64.386" viewBox="0 0 243.704 64.386">
  <g id="mongo" transform="translate(-6.321 -4.69)">
    <path id="Path_20" data-name="Path 20" d="M34.706,30.313C31.314,15.349,24.244,11.365,22.441,8.549A32.03,32.03,0,0,1,20.469,4.69a3.928,3.928,0,0,1-1.4,3.175C16.8,9.888,7.165,17.74,6.354,34.742,5.6,50.594,18.007,60.369,19.647,61.379a3.642,3.642,0,0,0,3.545-.556c5.982-4.105,14.155-15.05,11.521-30.51" transform="translate(0 0)" fill="#10aa50"/>
    <path id="Path_21" data-name="Path 21" d="M67.829,222.46c-.312,3.924-.536,6.2-1.329,8.446,0,0,.521,3.735.886,7.692H68.68a71.948,71.948,0,0,1,1.411-8.284C68.416,229.49,67.894,225.9,67.829,222.46Z" transform="translate(-46.846 -169.522)" fill="#b8c4c2"/>
    <path id="Path_22" data-name="Path 22" d="M73.491,61.978h0c-1.693-.782-2.182-4.444-2.258-7.856A160.814,160.814,0,0,0,71.6,37.205c-.089-2.96.042-27.415-.729-31a29.753,29.753,0,0,0,1.819,3.52c1.8,2.818,8.875,6.8,12.265,21.766C87.6,46.93,79.466,57.846,73.491,61.978Z" transform="translate(-50.248 -1.183)" fill="#12924f"/>
    <path id="Path_23" data-name="Path 23" d="M1076.787,207.671a3.676,3.676,0,1,1,3.676-3.727,3.629,3.629,0,0,1-3.676,3.727m0-7.019a3.345,3.345,0,1,0,3.323,3.354,3.29,3.29,0,0,0-3.323-3.354m.886,5.667-.948-2.045h-.765v2.045h-.556v-4.653h1.371c1.021,0,1.447.443,1.447,1.3a1.131,1.131,0,0,1-.919,1.238l.979,2.107Zm-1.691-2.526h.8c.651,0,.9-.222.9-.815s-.237-.8-.97-.8h-.734Z" transform="translate(-830.439 -152.287)" fill="#21313c"/>
    <path id="Path_24" data-name="Path 24" d="M806.439,126.952c.995.8,2.982,1.123,4.735,1.123a9.216,9.216,0,0,0,6.673-2.386c2.216-2.014,3.74-5.1,3.74-10.016,0-4.728-1.8-8.565-5.49-10.812a14.686,14.686,0,0,0-7.859-1.826,6.523,6.523,0,0,0-2.317.281,1.216,1.216,0,0,0-.428.665c-.093.842-.093,7.254-.093,11.044,0,3.886,0,9.305.093,9.97a2.87,2.87,0,0,0,.946,1.965m-9.447-26.03c.8,0,3.862.14,5.284.14,2.659,0,4.5-.14,9.465-.14,4.165,0,7.67,1.123,10.176,3.275a13.627,13.627,0,0,1,4.653,10.719c0,6.319-2.88,9.97-5.776,12.028-2.88,2.154-6.627,3.37-11.964,3.37-2.84,0-7.717-.093-11.787-.14h-.084c-.191-.374.348-1.834.68-1.872a6.02,6.02,0,0,0,1.91-.379c.86-.352,1.061-.791,1.156-2.335.142-2.9.1-6.365.1-10.3,0-2.807.047-8.284-.047-10.016-.144-1.449-.755-1.823-1.994-2.1a25.752,25.752,0,0,0-2.659-.421c-.093-.281.634-1.551.871-1.826" transform="translate(-614.795 -74.918)" fill="#21313c"/>
    <path id="Path_25" data-name="Path 25" d="M953.739,103.593c-.188.047-.425.516-.425.749-.049,1.686-.1,6.084-.1,9.126a.3.3,0,0,0,.237.235c.614.047,2.129.1,3.407.1a8.1,8.1,0,0,0,3.407-.516,4.413,4.413,0,0,0,2.216-4.165c0-4.072-2.84-5.616-7.052-5.616a12.712,12.712,0,0,0-1.7.093m10.745,18.721c0-4.119-3.031-6.458-8.57-6.458a21.637,21.637,0,0,0-2.413.047c-.142.047-.284.14-.284.235,0,2.949-.049,7.675.1,9.547a3.159,3.159,0,0,0,1.371,2.247,9.52,9.52,0,0,0,3.645.514c3.266,0,6.155-1.823,6.155-6.13M945.187,101.3c.427,0,1.686.14,4.905.14,3.029,0,5.49-.093,8.419-.093,3.645,0,8.661,1.312,8.661,6.74a6.568,6.568,0,0,1-4.354,5.851c-.142.047-.142.14,0,.186,3.5.886,6.578,3.042,6.578,7.161,0,4.026-2.508,6.554-6.153,8.144a19.533,19.533,0,0,1-7.754,1.309c-2.129,0-7.836-.222-11.009-.186-.332-.14.3-1.639.587-1.872a8.725,8.725,0,0,0,2.147-.337c1.134-.279,1.27-.645,1.411-2.331.1-1.451.1-6.647.1-10.344,0-5.056.049-8.47,0-10.156-.047-1.309-.521-1.733-1.42-1.965-.709-.142-1.892-.281-2.838-.421-.237-.235.492-1.639.727-1.826" transform="translate(-730.233 -75.206)" fill="#21313c"/>
    <path id="Path_26" data-name="Path 26" d="M180.192,164.942a2.052,2.052,0,0,1-.144-.946,1.2,1.2,0,0,1,.144-.631,16.083,16.083,0,0,0,1.817-.37c.837-.208,1.152-.665,1.2-1.733.137-2.524.146-7.258.1-10.586v-.1a1.348,1.348,0,0,0-.443-1.19,9.513,9.513,0,0,0-2.51-1.108c-.4-.117-.616-.326-.6-.569s.261-.532.778-.634a29.86,29.86,0,0,0,6.376-1.648.935.935,0,0,1,.188.665c0,.146-.022.3-.038.461-.04.47-.084,1-.084,1.535a.35.35,0,0,0,.594.2c2.687-2.107,5.1-2.858,6.33-2.858a5.444,5.444,0,0,1,4.839,2.969.326.326,0,0,0,.275.162.315.315,0,0,0,.257-.137c2.47-1.874,4.918-2.993,6.558-2.993,3.873,0,6.188,2.9,6.188,7.754,0,1.4-.013,3.166-.027,4.817-.011,1.449-.022,2.807-.022,3.747a1.3,1.3,0,0,0,.764.986,9.8,9.8,0,0,0,2.419.6h.04a3.6,3.6,0,0,1-.244,1.584c-.257,0-.611-.022-1.055-.044-.8-.04-1.908-.1-3.19-.1-2.574,0-3.919.049-5.2.133a3.9,3.9,0,0,1-.013-1.575,13.637,13.637,0,0,0,1.577-.343c.82-.27,1.057-.643,1.108-1.73.02-.773.168-7.586-.1-9.2a4.118,4.118,0,0,0-4.269-3.64,7.516,7.516,0,0,0-4.258,1.624.62.62,0,0,0-.155.4v.033a17.422,17.422,0,0,1,.186,3.432c0,.886,0,1.81-.011,2.734-.011,1.879-.02,3.651.011,4.992a1.256,1.256,0,0,0,1,1.307c.241.053.432.1.625.144.37.091.755.184,1.329.275a2.546,2.546,0,0,1-.022,1.179.944.944,0,0,1-.166.4c-1.431-.049-2.9-.091-5.02-.091-.642,0-1.69.027-2.617.051-.751.02-1.46.04-1.863.042a1.826,1.826,0,0,1-.142-.815,1.413,1.413,0,0,1,.148-.762l.569-.1c.5-.089.926-.164,1.329-.266.7-.222.964-.6,1.015-1.5a70.35,70.35,0,0,0-.051-9.587c-.5-2.411-1.872-3.633-4.079-3.633a7.675,7.675,0,0,0-4.258,1.622,1.3,1.3,0,0,0-.392.964v2.479c0,3.013-.02,6.764.053,8.386a1.328,1.328,0,0,0,1.159,1.312c.206.06.561.117.973.186.237.04.5.082.764.131a3.359,3.359,0,0,1-.126,1.584c-.412,0-.919-.027-1.5-.051-.886-.04-1.994-.089-3.246-.089-1.48,0-2.51.049-3.337.089-.556.027-1.037.049-1.518.051" transform="translate(-135.004 -109.558)" fill="#21313c"/>
    <path id="Path_27" data-name="Path 27" d="M364.961,147.5a4.036,4.036,0,0,0-2.26.636c-1.644,1-2.481,3-2.481,5.929,0,5.49,2.749,9.325,6.686,9.325a4.21,4.21,0,0,0,2.885-1.021c1.21-.986,1.852-3,1.852-5.825,0-5.408-2.687-9.044-6.686-9.044m.758,17.926c-7.112,0-9.644-5.218-9.644-10.1a9.03,9.03,0,0,1,4.143-7.925,12.653,12.653,0,0,1,6.4-1.892c5.426,0,9.217,3.9,9.217,9.491a9.82,9.82,0,0,1-4.378,8.672,12.418,12.418,0,0,1-5.738,1.753" transform="translate(-272.261 -109.621)" fill="#21313c"/>
    <path id="Path_28" data-name="Path 28" d="M691.777,147.5a4.026,4.026,0,0,0-2.264.636c-1.644,1-2.481,3-2.481,5.929,0,5.49,2.75,9.325,6.687,9.325a4.209,4.209,0,0,0,2.894-1.021c1.21-.986,1.85-3,1.85-5.825,0-5.408-2.685-9.044-6.684-9.044m.758,17.926c-7.112,0-9.644-5.218-9.644-10.1a9.025,9.025,0,0,1,4.145-7.927,12.629,12.629,0,0,1,6.4-1.892c5.426,0,9.217,3.9,9.217,9.489a9.812,9.812,0,0,1-4.378,8.672,12.393,12.393,0,0,1-5.738,1.755" transform="translate(-526.672 -109.621)" fill="#21313c"/>
    <path id="Path_29" data-name="Path 29" d="M586.25,147.251c-2.191,0-3.609,1.73-3.609,4.409s1.221,5.862,4.653,5.862a3.339,3.339,0,0,0,2.187-.844,5.472,5.472,0,0,0,1.329-3.848c0-3.494-1.7-5.579-4.549-5.579m-.284,18.486a3.608,3.608,0,0,0-1.772.443c-1.735,1.108-2.539,2.216-2.539,3.5a3.74,3.74,0,0,0,1.474,3.015,7.468,7.468,0,0,0,5.022,1.535c4.252,0,6.157-2.286,6.157-4.551a3.226,3.226,0,0,0-2.419-3.232,18.982,18.982,0,0,0-5.916-.711m.284,10.856a9.18,9.18,0,0,1-5.962-1.748,5.587,5.587,0,0,1-2.215-4.139,3.236,3.236,0,0,1,.838-2.1,22.018,22.018,0,0,1,3.855-3.088.2.2,0,0,0,.124-.188.2.2,0,0,0-.151-.195,4.072,4.072,0,0,1-2.732-2.659.228.228,0,0,0-.02-.1.615.615,0,0,1,.248-.764c.275-.195.714-.456,1.183-.733a15.921,15.921,0,0,0,1.9-1.238.312.312,0,0,0-.08-.487c-2.9-.975-4.365-3.131-4.365-6.425a6.388,6.388,0,0,1,2.681-5.257,12.229,12.229,0,0,1,6-2.034h.111a12.366,12.366,0,0,1,4.577,1.019,7.275,7.275,0,0,0,2.707.43,3.648,3.648,0,0,0,2.929-1.108,2.538,2.538,0,0,1,.155.837,3.151,3.151,0,0,1-.527,1.923,2.39,2.39,0,0,1-1.819.791,1.512,1.512,0,0,1-.222-.011,5.969,5.969,0,0,1-1.108-.184l-.182.064c-.058.084-.02.177.027.3a.379.379,0,0,1,.027.073,12.973,12.973,0,0,1,.264,1.795c0,3.445-1.358,4.945-2.827,6.057a9.651,9.651,0,0,1-4.874,1.888h0c-.038,0-.221.016-.567.047-.222.02-.51.047-.552.047h-.042c-.319.089-1.152.485-1.152,1.223,0,.611.377,1.371,2.178,1.509l1.165.082a35.849,35.849,0,0,1,6.737.844,4.666,4.666,0,0,1,3.117,4.491c0,3.091-2.2,6-5.878,7.774a12.774,12.774,0,0,1-5.559,1.247" transform="translate(-445.091 -109.558)" fill="#21313c"/>
    <path id="Path_30" data-name="Path 30" d="M483.337,163.06a8.455,8.455,0,0,1-2.7-.7,1.241,1.241,0,0,1-.332-.665c-.1-1.451-.1-5.663-.1-8.419a10.058,10.058,0,0,0-1.329-5.616,5.7,5.7,0,0,0-4.828-2.528c-1.846,0-4.307,1.263-6.341,3-.049.047-.361.343-.354-.117s.078-1.4.122-1.994a1.026,1.026,0,0,0-.31-.868,28.212,28.212,0,0,1-6.438,1.686c-1.006.195-1.261,1.163-.186,1.5h.016A9.185,9.185,0,0,1,463,149.4a1.278,1.278,0,0,1,.379,1.17c.047,3.135.047,7.956-.1,10.577-.047,1.03-.332,1.4-1.09,1.593l.071-.024a14.729,14.729,0,0,1-1.753.328,2.552,2.552,0,0,0,0,1.872c.474,0,2.88-.14,4.874-.14,2.743,0,4.163.14,4.874.14a2.612,2.612,0,0,0,.191-1.872,9.971,9.971,0,0,1-1.943-.281c-.755-.186-.946-.563-.993-1.4-.093-2.2-.093-6.881-.093-10.065a1.875,1.875,0,0,1,.518-1.551,6.237,6.237,0,0,1,3.882-1.4,4.235,4.235,0,0,1,2.88.981,4.01,4.01,0,0,1,1.356,2.645c.188,1.772.14,5.337.14,8.419,0,1.686-.14,2.109-.755,2.3a7.645,7.645,0,0,1-1.941.374,2.553,2.553,0,0,0,0,1.872c1.23,0,2.659-.14,4.732-.14,2.6,0,4.26.14,4.923.14a2.6,2.6,0,0,0,.19-1.872" transform="translate(-353.048 -109.325)" fill="#21313c"/>
  </g>
</svg>
