<svg xmlns="http://www.w3.org/2000/svg" width="160" height="35" viewBox="0 0 290.108 53.584">
  <g id="nuxt" transform="translate(-3.376 -12.102)">
    <path id="Path_12" data-name="Path 12" d="M76.333,20.5h8.684l18.4,29.426V20.5h8.016V62.2h-8.625L84.349,32.831V62.2H76.333Z" transform="translate(24.732 2.847)" fill="#012a35"/>
    <path id="Path_13" data-name="Path 13" d="M136.507,59.24h-7.47V54.583c-1.7,3.278-5.162,5.123-9.534,5.123-6.924,0-11.42-4.884-11.42-11.914V29.218h7.47V46.255c0,4.11,2.552,6.969,6.378,6.969,4.191,0,7.106-3.217,7.106-7.624V29.218h7.47Z" transform="translate(35.495 5.802)" fill="#012a35"/>
    <path id="Path_14" data-name="Path 14" d="M154.368,58.886,147.2,48.878l-7.168,10.007h-7.958l11.056-15.666-10.2-14.356h8.138L147.2,37.5l6.071-8.639h8.2L151.208,43.219l11.055,15.666Z" transform="translate(43.628 5.682)" fill="#012a35"/>
    <path id="Path_15" data-name="Path 15" d="M169.373,22.457v9.053h8.5v6.136h-8.5v14.9a1.868,1.868,0,0,0,.564,1.335,1.944,1.944,0,0,0,1.36.554h6.58V61.52h-4.921c-6.682,0-11.053-3.813-11.053-10.479V37.651h-6.012V31.509h3.772a2.528,2.528,0,0,0,2.784-2.727V22.457Z" transform="translate(51.702 3.51)" fill="#012a35"/>
    <path id="Path_16" data-name="Path 16" d="M189.4,52.752V20.5h8.014V50.281c0,8.043-3.947,11.914-10.628,11.914h-9.329V55.113h9.536a2.432,2.432,0,0,0,1.7-.691,2.338,2.338,0,0,0,.7-1.669" transform="translate(59.012 2.847)" fill="#012a35"/>
    <path id="Path_17" data-name="Path 17" d="M195.945,48.316h7.717c.427,4.657,3.586,7.623,8.687,7.623,4.555,0,7.717-1.784,7.717-5.478,0-8.936-22.853-2.742-22.853-18.705.005-6.849,6.019-11.608,14.658-11.608,8.99,0,15.062,5.062,15.433,12.866h-7.675c-.362-3.633-3.264-6.075-7.773-6.075-4.191,0-6.8,1.907-6.8,4.823,0,9.233,23.15,2.329,23.15,18.586,0,7.743-6.5,12.45-15.852,12.45-9.657,0-15.973-5.72-16.4-14.476" transform="translate(65.28 2.728)" fill="#012a35"/>
    <path id="Path_18" data-name="Path 18" d="M38.692,14.993a5.847,5.847,0,0,0-10.09,0L4.165,57.011A5.783,5.783,0,0,0,9.21,65.685H28.287a5.586,5.586,0,0,1-1.176-7.058L45.619,26.9Z" transform="translate(0)" fill="#80eec0" fill-rule="evenodd"/>
    <path id="Path_19" data-name="Path 19" d="M46.6,21.743a4.867,4.867,0,0,1,8.35,0L75.175,56.121A4.732,4.732,0,0,1,71,63.219H30.552a4.732,4.732,0,0,1-4.175-7.1Z" transform="translate(7.576 2.466)" fill="#00dc82"/>
  </g>
</svg>
