<svg xmlns="http://www.w3.org/2000/svg" width="89.236" height="53.584" viewBox="0 0 89.236 53.584">
  <g id="tailwind" transform="translate(-40.5 -226.318)">
    <path id="Path_10" data-name="Path 10" d="M290.434,226.336c-15.7.5-20.365,11.714-21.434,17.789,1.393-2.252,5.784-7.193,12.248-7.193,7.534,0,13.269,8.408,16.768,11.033a26.5,26.5,0,0,0,24.01,3.985c8.943-2.722,13.091-12.216,14-16.72-4.326,5.881-10.887,9.413-19,5.249C311.431,237.612,307.251,225.8,290.434,226.336Z" transform="translate(-206.288 0)" fill="#07b6d5"/>
    <path id="Path_11" data-name="Path 11" d="M61.934,500.836c-15.7.5-20.365,11.714-21.434,17.789,1.393-2.252,5.784-7.193,12.248-7.193,7.534,0,13.269,8.408,16.768,11.033a26.5,26.5,0,0,0,24.01,3.985c8.943-2.722,13.091-12.216,14-16.72-4.326,5.881-10.887,9.413-19,5.249C82.931,512.112,78.751,500.3,61.934,500.836Z" transform="translate(0 -247.817)" fill="#07b6d5"/>
  </g>
</svg>
